<?xml version="1.0" encoding="UTF-8" standalone="no"?>
<!-- Created with Inkscape (http://www.inkscape.org/) -->

<svg
   xmlns:dc="http://purl.org/dc/elements/1.1/"
   xmlns:cc="http://creativecommons.org/ns#"
   xmlns:rdf="http://www.w3.org/1999/02/22-rdf-syntax-ns#"
   xmlns:svg="http://www.w3.org/2000/svg"
   xmlns="http://www.w3.org/2000/svg"
   xmlns:xlink="http://www.w3.org/1999/xlink"
   xmlns:sodipodi="http://sodipodi.sourceforge.net/DTD/sodipodi-0.dtd"
   xmlns:inkscape="http://www.inkscape.org/namespaces/inkscape"
   width="65"
   height="65"
   id="svg2"
   version="1.1"
   inkscape:version="0.48.4 r9939"
   sodipodi:docname="test.svg"
   inkscape:export-filename="/cshome/fmachaal/Desktop/anger.png"
   inkscape:export-xdpi="90"
   inkscape:export-ydpi="90">
  <defs
     id="defs4">
    <inkscape:perspective
       sodipodi:type="inkscape:persp3d"
       inkscape:vp_x="0 : 16 : 1"
       inkscape:vp_y="0 : 1000 : 0"
       inkscape:vp_z="32 : 16 : 1"
       inkscape:persp3d-origin="16 : 10.666667 : 1"
       id="perspective5643" />
  </defs>
  <sodipodi:namedview
     id="base"
     pagecolor="#ffffff"
     bordercolor="#666666"
     borderopacity="1.0"
     inkscape:pageopacity="0.0"
     inkscape:pageshadow="2"
     inkscape:zoom="5.3346154"
     inkscape:cx="-22.866603"
     inkscape:cy="9.4252325"
     inkscape:document-units="px"
     inkscape:current-layer="layer1"
     showgrid="true"
     inkscape:snap-grids="true"
     inkscape:window-width="1920"
     inkscape:window-height="968"
     inkscape:window-x="0"
     inkscape:window-y="49"
     inkscape:window-maximized="1"
     showguides="true">
    <inkscape:grid
       type="xygrid"
       id="grid5272"
       empspacing="5"
       visible="true"
       enabled="true"
       snapvisiblegridlinesonly="true" />
  </sodipodi:namedview>
  <metadata
     id="metadata7">
    <rdf:RDF>
      <cc:Work
         rdf:about="">
        <dc:format>image/svg+xml</dc:format>
        <dc:type
           rdf:resource="http://purl.org/dc/dcmitype/StillImage" />
        <dc:title></dc:title>
      </cc:Work>
    </rdf:RDF>
  </metadata>
  <g
     inkscape:label="Anger"
     inkscape:groupmode="layer"
     id="layer1"
     style="display:inline"
     transform="translate(0,-987.3622)">
    <path
       style="fill:#e60000;fill-opacity:0;stroke:#e60000;stroke-width:0.05659813;stroke-miterlimit:4;stroke-opacity:0;stroke-dasharray:none"
       d="m 14.811791,1051.3553 c -0.647799,-0.06 -1.601825,-0.2075 -2.189068,-0.3378 -6.1127631,-1.3563 -10.884468,-6.0804 -12.35019541,-12.2271 -0.3267769,-1.3704 -0.41200682,-2.1544 -0.41200682,-3.7897 0,-1.2601 0.0191916,-1.6118 0.12558945,-2.3013 0.30346051,-1.9666 0.80459517,-3.5311 1.67983458,-5.2445 0.7983217,-1.5627 1.7249607,-2.8269 3.0079947,-4.1037 0.9177787,-0.9133 1.3668317,-1.2875 2.3362965,-1.9468 2.076078,-1.412 4.263136,-2.2549 6.903476,-2.6609 0.819878,-0.1261 3.284888,-0.1436 4.097487,-0.029 2.95006,0.4154 5.44128,1.4353 7.79491,3.1913 0.859884,0.6415 2.459108,2.2415 3.109816,3.1112 1.791787,2.3949 2.809851,4.897 3.25149,7.9913 0.09761,0.6839 0.09557,3.3085 -0.0031,4.0133 -0.544306,3.8864 -2.161394,7.1299 -4.871038,9.7702 -2.493794,2.4299 -5.471187,3.9027 -8.973332,4.4386 -0.708385,0.1084 -2.861864,0.1852 -3.508123,0.1251 l 1e-6,0 z m 2.217134,-1.1679 c 3.424985,-0.1472 6.986919,-1.7467 9.550297,-4.2887 2.510604,-2.4896 4.053852,-5.6889 4.458174,-9.2422 0.09823,-0.8632 0.08416,-2.6473 -0.02783,-3.5308 -0.236722,-1.8675 -0.756887,-3.5466 -1.607886,-5.1902 -2.290344,-4.4237 -6.51058,-7.3925 -11.458356,-8.0604 -0.613448,-0.083 -1.957233,-0.1211 -2.743859,-0.078 -3.809832,0.208 -7.2279304,1.7836 -9.93473,4.5796 -2.7812904,2.8729 -4.2609133,6.5623 -4.2609133,10.6242 0,3.5066 1.0860247,6.6802 3.24619,9.486 0.5500231,0.7144 2.0140265,2.1476 2.773507,2.7152 1.8202451,1.3604 3.9046343,2.3021 6.0334693,2.726 1.049457,0.209 2.478439,0.3461 3.129987,0.3002 0.09262,-0.01 0.471491,-0.025 0.84195,-0.041 z"
       id="path5282"
       inkscape:connector-curvature="0" />
    <use
       id="use5296"
       xlink:href="#path5282"
       x="0"
       y="0"
       width="32"
       height="32"
       transform="translate(2.3031033,-4.6355009)" />
    <use
       id="use5298"
       xlink:href="#path5282"
       x="0"
       y="0"
       width="32"
       height="32"
       transform="translate(3.3381808,-6.0710811)" />
    <use
       id="use5300"
       xlink:href="#path5282"
       x="0"
       y="0"
       width="32"
       height="32"
       transform="translate(2.4723917,-3.4338668)" />
    <use
       id="use5302"
       xlink:href="#path5282"
       x="0"
       y="0"
       width="32"
       height="32"
       transform="translate(2.9357036,-3.8989008)" />
    <use
       id="use5304"
       xlink:href="#path5282"
       x="0"
       y="0"
       width="32"
       height="32"
       transform="translate(0.47522258,-3.2688627)" />
    <use
       id="use5306"
       xlink:href="#path5282"
       x="0"
       y="0"
       width="32"
       height="32"
       transform="translate(0.71128279,-1.1075627)" />
    <use
       id="use5308"
       xlink:href="#path5282"
       x="0"
       y="0"
       width="32"
       height="32"
       transform="translate(1.3492035,0.3591044)" />
    <use
       id="use5310"
       xlink:href="#path5282"
       x="0"
       y="0"
       width="32"
       height="32"
       transform="translate(-1.0589646,-0.95615921)" />
    <use
       id="use5312"
       xlink:href="#path5282"
       x="0"
       y="0"
       width="32"
       height="32"
       transform="translate(0.24354354,-0.47895055)" />
    <use
       id="use5314"
       xlink:href="#path5282"
       x="0"
       y="0"
       width="32"
       height="32"
       transform="translate(-1.3618391,-0.01386625)" />
    <use
       id="use5316"
       xlink:href="#path5282"
       x="0"
       y="0"
       width="32"
       height="32"
       transform="translate(-1.3448599,-2.2666362)" />
    <use
       id="use5318"
       xlink:href="#path5282"
       x="0"
       y="0"
       width="32"
       height="32"
       transform="translate(0.88093828,-2.7712815)" />
    <use
       id="use5320"
       xlink:href="#path5282"
       x="0"
       y="0"
       width="32"
       height="32"
       transform="translate(1.3755257,-2.0257116)" />
    <use
       id="use5322"
       xlink:href="#path5282"
       x="0"
       y="0"
       width="32"
       height="32"
       transform="translate(-0.5754233,-1.0053384)" />
    <use
       id="use5324"
       xlink:href="#path5282"
       x="0"
       y="0"
       width="32"
       height="32"
       transform="translate(-0.56010693,-2.2589044)" />
    <use
       id="use5326"
       xlink:href="#path5282"
       x="0"
       y="0"
       width="32"
       height="32"
       transform="translate(-1.0344597,-0.16399879)" />
    <use
       id="use5328"
       xlink:href="#path5282"
       x="0"
       y="0"
       width="32"
       height="32"
       transform="translate(-2.8276607,-2.412421)" />
    <use
       id="use5330"
       xlink:href="#path5282"
       x="0"
       y="0"
       width="32"
       height="32"
       transform="translate(-0.87548148,-0.52971058)" />
    <use
       id="use5332"
       xlink:href="#path5282"
       x="0"
       y="0"
       width="32"
       height="32"
       transform="translate(-1.1566594,-1.8343602)" />
    <use
       id="use5334"
       xlink:href="#path5282"
       x="0"
       y="0"
       width="32"
       height="32"
       transform="translate(-2.4128356,-3.3834117)" />
    <use
       id="use5336"
       xlink:href="#path5282"
       x="0"
       y="0"
       width="32"
       height="32"
       transform="translate(-0.0208724,-1.8400863)" />
    <use
       id="use5338"
       xlink:href="#path5282"
       x="0"
       y="0"
       width="32"
       height="32"
       transform="translate(-0.28143252,-0.88296512)" />
    <use
       id="use5340"
       xlink:href="#path5282"
       x="0"
       y="0"
       width="32"
       height="32"
       transform="translate(-1.8502485,-1.7869239)" />
    <use
       id="use5342"
       xlink:href="#path5282"
       x="0"
       y="0"
       width="32"
       height="32"
       transform="translate(-1.4229685,-1.3313864)" />
    <use
       id="use5344"
       xlink:href="#path5282"
       x="0"
       y="0"
       width="32"
       height="32"
       transform="translate(-1.5724703,-0.86070751)" />
    <use
       id="use5346"
       xlink:href="#path5282"
       x="0"
       y="0"
       width="32"
       height="32"
       transform="translate(-2.3263255,-1.3022241)" />
    <use
       id="use5348"
       xlink:href="#path5282"
       x="0"
       y="0"
       width="32"
       height="32"
       transform="translate(-3.0070116,-2.1038446)" />
    <use
       id="use5350"
       xlink:href="#path5282"
       x="0"
       y="0"
       width="32"
       height="32"
       transform="translate(-4.2079648,1.0950072)" />
    <use
       id="use5352"
       xlink:href="#path5282"
       x="0"
       y="0"
       width="32"
       height="32"
       transform="translate(-1.4593928,-3.1944151)" />
    <use
       id="use5354"
       xlink:href="#path5282"
       x="0"
       y="0"
       width="32"
       height="32"
       transform="translate(-1.1636039,-0.33234345)" />
    <use
       id="use5356"
       xlink:href="#path5282"
       x="0"
       y="0"
       width="32"
       height="32"
       transform="translate(-2.6703441,-3.714185)" />
    <use
       id="use5358"
       xlink:href="#path5282"
       x="0"
       y="0"
       width="32"
       height="32"
       transform="translate(-2.7881819,-1.7149963)" />
    <use
       id="use5360"
       xlink:href="#path5282"
       x="0"
       y="0"
       width="32"
       height="32"
       transform="translate(-2.7828058,-0.26970198)" />
    <use
       id="use5362"
       xlink:href="#path5282"
       x="0"
       y="0"
       width="32"
       height="32"
       transform="translate(-1.3633066,0.1619696)" />
    <use
       id="use5364"
       xlink:href="#path5282"
       x="0"
       y="0"
       width="32"
       height="32"
       transform="translate(-2.8720443,4.1388791)" />
    <use
       id="use5366"
       xlink:href="#path5282"
       x="0"
       y="0"
       width="32"
       height="32"
       transform="translate(-3.1048784,5.3540328)" />
    <use
       id="use5368"
       xlink:href="#path5282"
       x="0"
       y="0"
       width="32"
       height="32"
       transform="translate(-0.82920699,6.7662443)" />
    <use
       id="use5370"
       xlink:href="#path5282"
       x="0"
       y="0"
       width="32"
       height="32"
       transform="translate(2.1782013,0.86319047)" />
    <use
       id="use5372"
       xlink:href="#path5282"
       x="0"
       y="0"
       width="32"
       height="32"
       transform="translate(2.2003301,4.4732682)" />
    <use
       id="use5374"
       xlink:href="#path5282"
       x="0"
       y="0"
       width="32"
       height="32"
       transform="translate(2.9670551,1.2788272)" />
    <use
       id="use5376"
       xlink:href="#path5282"
       x="0"
       y="0"
       width="32"
       height="32"
       transform="translate(5.4447098,2.007427)" />
    <use
       id="use5378"
       xlink:href="#path5282"
       x="0"
       y="0"
       width="32"
       height="32"
       transform="translate(8.4882643,-0.29019077)" />
    <use
       id="use5380"
       xlink:href="#path5282"
       x="0"
       y="0"
       width="32"
       height="32"
       transform="translate(10.761925,4.860262)" />
    <use
       id="use5382"
       xlink:href="#path5282"
       x="0"
       y="0"
       width="32"
       height="32"
       transform="translate(10.905434,2.3707424)" />
    <use
       id="use5384"
       xlink:href="#path5282"
       x="0"
       y="0"
       width="32"
       height="32"
       transform="translate(10.127291,3.1687222)" />
    <use
       id="use5386"
       xlink:href="#path5282"
       x="0"
       y="0"
       width="32"
       height="32"
       transform="translate(13.493714,15.408393)" />
    <use
       id="use5388"
       xlink:href="#path5282"
       x="0"
       y="0"
       width="32"
       height="32"
       transform="translate(14.423121,18.535225)" />
    <use
       id="use5390"
       xlink:href="#path5282"
       x="0"
       y="0"
       width="32"
       height="32"
       transform="translate(14.097366,14.816952)" />
    <use
       id="use5392"
       xlink:href="#path5282"
       x="0"
       y="0"
       width="32"
       height="32"
       transform="translate(13.647103,10.904109)" />
    <use
       id="use5394"
       xlink:href="#path5282"
       x="0"
       y="0"
       width="32"
       height="32"
       transform="translate(11.901798,11.689042)" />
    <use
       id="use5396"
       xlink:href="#path5282"
       x="0"
       y="0"
       width="32"
       height="32"
       transform="translate(13.384734,11.578624)" />
    <use
       id="use5398"
       xlink:href="#path5282"
       x="0"
       y="0"
       width="32"
       height="32"
       transform="translate(11.94827,10.171308)" />
    <use
       id="use5400"
       xlink:href="#path5282"
       x="0"
       y="0"
       width="32"
       height="32"
       transform="translate(14.363961,9.2777312)" />
    <use
       id="use5402"
       xlink:href="#path5282"
       x="0"
       y="0"
       width="32"
       height="32"
       transform="translate(14.14596,9.4925296)" />
    <use
       id="use5404"
       xlink:href="#path5282"
       x="0"
       y="0"
       width="32"
       height="32"
       transform="translate(15.124298,14.632474)" />
    <use
       id="use5406"
       xlink:href="#path5282"
       x="0"
       y="0"
       width="32"
       height="32"
       transform="translate(-1.5649941,1.6330664)" />
    <g
       id="g6100"
       transform="matrix(1.8967953,0,0,1.8251433,-51.889768,-817.1275)">
      <path
         transform="matrix(1.2039763,0,0,1.2169294,23.41029,985.94526)"
         d="M 31,17 C 31,24.179702 25.179702,30 18,30 10.820298,30 5,24.179702 5,17 5,9.8202983 10.820298,4 18,4 25.179702,4 31,9.8202983 31,17 z"
         sodipodi:ry="13"
         sodipodi:rx="13"
         sodipodi:cy="17"
         sodipodi:cx="18"
         id="path5278"
         style="fill:#ff0000;fill-opacity:1;stroke:#e91e63;stroke-opacity:1"
         sodipodi:type="arc" />
      <path
         inkscape:connector-curvature="0"
         d="m 39.114991,997.56886 c 0.162484,-0.024 0.323375,-0.031 0.484929,7e-4 0.161949,0.034 0.317121,0.1011 0.465968,0.1723 0.171773,0.088 0.343314,0.1771 0.520448,0.2536 0.167378,0.098 0.350193,0.1645 0.527036,0.2429 0.183802,0.078 0.351996,0.1873 0.532961,0.2717 0.156384,0.075 0.296897,0.1781 0.445306,0.2674 0.163832,0.1036 0.329661,0.2032 0.495872,0.3026 0.13679,0.092 0.259661,0.2024 0.368524,0.3252 0.125519,0.1551 0.242779,0.3174 0.358141,0.4805 0.130332,0.18054 0.222674,0.38354 0.334157,0.57534 0.06974,0.1354 0.148116,0.267 0.212602,0.4051 0.03592,0.065 0.07833,0.1248 0.113136,0.1902 0,0 -0.72283,0.4135 -0.72283,0.4135 l 0,0 c -0.03489,-0.067 -0.07969,-0.1276 -0.113835,-0.1951 -0.06095,-0.137 -0.138841,-0.2662 -0.203634,-0.4013 -0.108198,-0.1907 -0.197766,-0.3921 -0.328172,-0.5695 -0.114967,-0.1596 -0.231688,-0.31864 -0.357559,-0.46974 -0.106308,-0.1144 -0.222684,-0.2203 -0.354386,-0.3052 -0.165924,-0.1 -0.329395,-0.2029 -0.494765,-0.3032 -0.147085,-0.088 -0.287821,-0.1867 -0.442742,-0.2605 -0.177064,-0.089 -0.345142,-0.1952 -0.528992,-0.2704 -0.178189,-0.076 -0.358828,-0.1477 -0.528377,-0.2427 -0.176006,-0.081 -0.34872,-0.1684 -0.522502,-0.2539 -0.145907,-0.065 -0.295891,-0.1277 -0.454727,-0.1526 -0.158924,-0.019 -0.316791,0 -0.474137,0.023 0,0 0.667576,-0.4996 0.667576,-0.4996 z"
         id="path5493"
         style="fill:#000000;fill-opacity:1;stroke:none" />
      <path
         inkscape:connector-curvature="0"
         d="m 48.415642,1000.9809 c 0.03453,-0.235 0.09393,-0.4644 0.156932,-0.6929 0.06266,-0.2377 0.166794,-0.45824 0.29049,-0.66944 0.116688,-0.1927 0.250893,-0.374 0.3923,-0.5491 0.144838,-0.1693 0.314244,-0.3135 0.494809,-0.443 0.438831,-0.3034 0.92514,-0.5226 1.387786,-0.7836 0.242669,-0.1357 0.491324,-0.2624 0.750967,-0.3624 0.224397,-0.1012 0.461042,-0.1447 0.703944,-0.1672 0.203696,-0.013 0.408014,-0.013 0.612072,-0.013 0.02519,0 0.05037,-0.012 0.07557,-0.012 0,0 -0.666401,0.4927 -0.666401,0.4927 l 0,0 c -0.02622,0 -0.05242,0 -0.07864,0 -0.201181,-9e-4 -0.402762,0 -0.603257,0.018 -0.237494,0.028 -0.466844,0.086 -0.686347,0.1825 -0.256101,0.1072 -0.503629,0.2337 -0.744943,0.371 -0.117892,0.065 -0.237292,0.1264 -0.356676,0.1888 -0.03835,0.02 -0.151516,0.083 -0.11422,0.061 0.377186,-0.2217 0.838983,-0.482 0.484924,-0.282 -0.182637,0.122 -0.351338,0.2605 -0.501736,0.4212 -0.144131,0.1713 -0.278279,0.3503 -0.399588,0.5386 -0.124205,0.2054 -0.236721,0.4165 -0.299846,0.65 -0.06372,0.22224 -0.125722,0.44584 -0.15307,0.67594 0,0 -0.745075,0.3694 -0.745075,0.3694 z"
         id="path5497"
         style="fill:#000000;fill-opacity:1;stroke:none" />
      <path
         inkscape:connector-curvature="0"
         d="m 50.281717,1014.4086 c -0.423926,-0.2478 -0.885842,-0.4214 -1.340997,-0.6017 -0.641262,-0.2355 -1.27453,-0.4921 -1.924093,-0.704 -0.50658,-0.1864 -1.041129,-0.2657 -1.571995,-0.3473 -0.603184,-0.083 -1.21313,-0.093 -1.820972,-0.1027 -0.735037,-0.022 -1.468291,0.068 -2.191224,0.1931 -0.740852,0.1652 -1.466629,0.3689 -2.173707,0.6458 -0.409646,0.1652 -0.810103,0.3544 -1.200154,0.5617 -0.08426,0.045 -0.333756,0.1852 -0.249263,0.1408 0.155305,-0.082 0.307837,-0.1682 0.461756,-0.2523 -0.290726,0.1803 -0.526979,0.4277 -0.752022,0.6817 -0.02119,0.025 -0.04237,0.05 -0.06356,0.075 0,0 -0.759046,0.3226 -0.759046,0.3226 l 0,0 c 0.02178,-0.026 0.04356,-0.053 0.06534,-0.08 0.235495,-0.2571 0.467133,-0.5238 0.766218,-0.7103 0.299584,-0.1786 0.597744,-0.3595 0.898752,-0.5357 0.460484,-0.2694 0.954351,-0.4821 1.44618,-0.686 0.708526,-0.2686 1.43991,-0.473 2.180787,-0.6314 0.728478,-0.1198 1.465504,-0.2089 2.205263,-0.1858 0.613519,0.01 1.229443,0.017 1.837995,0.1042 0.532662,0.085 1.067854,0.1691 1.574922,0.3614 0.645648,0.2208 1.275655,0.4837 1.918597,0.7123 0.468422,0.1794 0.939195,0.3565 1.386706,0.5846 0,0 -0.695482,0.4533 -0.695482,0.4533 z"
         id="path5509"
         style="fill:#000000;fill-opacity:1;stroke:none" />
      <a
         transform="matrix(1.2042155,0,0,1.2042155,53.679945,988.33016)"
         id="a5705-9"
         style="display:inline">
        <path
           sodipodi:type="arc"
           style="fill:#87f6fb;fill-opacity:0.4070352;stroke:none"
           id="path5703-7"
           sodipodi:cx="-11"
           sodipodi:cy="11.5"
           sodipodi:rx="2"
           sodipodi:ry="2"
           d="m -9,11.5 c 0,1.104569 -0.8954305,2 -2,2 -1.104569,0 -2,-0.895431 -2,-2 0,-1.104569 0.895431,-2 2,-2 1.1045695,0 2,0.895431 2,2 z"
           transform="translate(-0.27966729,-0.32627859)" />
      </a>
      <a
         transform="matrix(1.2042155,0,0,1.2042155,65.298845,987.66176)"
         id="a5705-1"
         style="display:inline">
        <path
           sodipodi:type="arc"
           style="fill:#87f6fb;fill-opacity:0.4070352;stroke:none"
           id="path5703-3"
           sodipodi:cx="-11"
           sodipodi:cy="11.5"
           sodipodi:rx="2"
           sodipodi:ry="2"
           d="m -9,11.5 c 0,1.104569 -0.8954305,2 -2,2 -1.104569,0 -2,-0.895431 -2,-2 0,-1.104569 0.895431,-2 2,-2 1.1045695,0 2,0.895431 2,2 z"
           transform="translate(-0.27966729,-0.32627859)" />
      </a>
      <path
         transform="matrix(1.2042155,0,0,1.2042155,55.124152,996.49976)"
         d="m -11,5 c 0,0.5522847 -0.447715,1 -1,1 -0.552285,0 -1,-0.4477153 -1,-1 0,-0.5522847 0.447715,-1 1,-1 0.552285,0 1,0.4477153 1,1 z"
         sodipodi:ry="1"
         sodipodi:rx="1"
         sodipodi:cy="5"
         sodipodi:cx="-12"
         id="path5681-2-1"
         style="fill:#000000;fill-opacity:1;stroke:none;display:inline"
         sodipodi:type="arc" />
      <path
         transform="matrix(1.2042155,0,0,1.2042155,65.743027,995.88216)"
         d="m -11,5 c 0,0.5522847 -0.447715,1 -1,1 -0.552285,0 -1,-0.4477153 -1,-1 0,-0.5522847 0.447715,-1 1,-1 0.552285,0 1,0.4477153 1,1 z"
         sodipodi:ry="1"
         sodipodi:rx="1"
         sodipodi:cy="5"
         sodipodi:cx="-12"
         id="path5681-2-2"
         style="fill:#000000;fill-opacity:1;stroke:none;display:inline"
         sodipodi:type="arc" />
    </g>
  </g>
</svg>
