<?xml version="1.0" encoding="UTF-8" standalone="no"?>
<!-- Created with Inkscape (http://www.inkscape.org/) -->

<svg
   xmlns:dc="http://purl.org/dc/elements/1.1/"
   xmlns:cc="http://creativecommons.org/ns#"
   xmlns:rdf="http://www.w3.org/1999/02/22-rdf-syntax-ns#"
   xmlns:svg="http://www.w3.org/2000/svg"
   xmlns="http://www.w3.org/2000/svg"
   xmlns:sodipodi="http://sodipodi.sourceforge.net/DTD/sodipodi-0.dtd"
   xmlns:inkscape="http://www.inkscape.org/namespaces/inkscape"
   width="65"
   height="65"
   id="svg6120"
   version="1.1"
   inkscape:version="0.48.4 r9939"
   sodipodi:docname="confusion.svg">
  <defs
     id="defs6122" />
  <sodipodi:namedview
     id="base"
     pagecolor="#ffffff"
     bordercolor="#666666"
     borderopacity="1.0"
     inkscape:pageopacity="0.0"
     inkscape:pageshadow="2"
     inkscape:zoom="7.9195959"
     inkscape:cx="26.047687"
     inkscape:cy="32.358489"
     inkscape:document-units="px"
     inkscape:current-layer="g6084"
     showgrid="false"
     inkscape:window-width="1920"
     inkscape:window-height="978"
     inkscape:window-x="0"
     inkscape:window-y="31"
     inkscape:window-maximized="1" />
  <metadata
     id="metadata6125">
    <rdf:RDF>
      <cc:Work
         rdf:about="">
        <dc:format>image/svg+xml</dc:format>
        <dc:type
           rdf:resource="http://purl.org/dc/dcmitype/StillImage" />
        <dc:title />
      </cc:Work>
    </rdf:RDF>
  </metadata>
  <g
     inkscape:label="Layer 1"
     inkscape:groupmode="layer"
     id="layer1"
     transform="translate(0,-987.36218)">
    <g
       style="display:inline"
       id="g6084"
       transform="matrix(2.0286757,0,0,1.9515319,105.89426,1005.2302)">
      <path
         transform="matrix(0.99980134,0,0,1.0105578,-53.742181,-7.8467481)"
         d="M 31,17 C 31,24.179702 25.179702,30 18,30 10.820298,30 5,24.179702 5,17 5,9.8202983 10.820298,4 18,4 25.179702,4 31,9.8202983 31,17 z"
         sodipodi:ry="13"
         sodipodi:rx="13"
         sodipodi:cy="17"
         sodipodi:cx="18"
         id="path5278-8"
         style="fill:#33524a;fill-opacity:1;stroke:#e91e63;stroke-opacity:1;display:inline"
         sodipodi:type="arc" />
      <path
         inkscape:connector-curvature="0"
         d="m -49.797782,-8.0777975 c -0.176616,0.1016896 -0.352878,0.2039972 -0.529848,0.305069 -0.02535,0.014475 0.0499,-0.030289 0.07495,-0.045268 0.02788,-0.016672 0.0556,-0.033629 0.08384,-0.049685 0.309112,-0.1757606 0.551551,-0.3491179 0.868244,-0.4590045 0.207758,-0.06618 0.42185,-0.099481 0.63838,-0.1186079 0.164015,-0.021404 0.326797,-0.00223 0.489858,0.015275 0.103274,0.00324 0.192852,0.054711 0.275414,0.1124958 0.08857,0.058273 0.160381,0.1271798 0.217812,0.2162057 0.04982,0.086439 0.06265,0.184269 0.06989,0.281939 0.0062,0.097016 -0.0365,0.1785255 -0.082,0.2604969 -0.0625,0.1044974 -0.144374,0.1953974 -0.230272,0.2809718 -0.09805,0.099464 -0.188356,0.2069523 -0.26549,0.3234152 -0.0782,0.1158074 -0.121383,0.2451527 -0.146648,0.3812978 -0.02238,0.1293131 -0.02514,0.2566081 8.94e-4,0.3849052 0.05529,0.2100658 0.168904,0.399638 0.289904,0.5778433 0.111855,0.1563171 0.241602,0.2986229 0.380801,0.4307728 0,0 -0.582748,0.357806 -0.582748,0.357806 l 0,0 c -0.137235,-0.1394747 -0.266168,-0.28697 -0.379237,-0.4469708 -0.127572,-0.1839963 -0.251132,-0.3776447 -0.314091,-0.5944805 -0.0059,-0.025671 -0.02747,-0.1144163 -0.02979,-0.1411524 -0.0077,-0.08823 0.01217,-0.1793675 0.01686,-0.2671152 0.0222,-0.1431311 0.05736,-0.2820209 0.13486,-0.4064916 0.07615,-0.1210662 0.163268,-0.2319078 0.258543,-0.3389085 0.08855,-0.077135 0.167011,-0.165784 0.235086,-0.2615361 0.0439,-0.069839 0.09043,-0.1392712 0.09939,-0.2231962 -0.0043,-0.086089 -0.01017,-0.1738134 -0.05274,-0.2509359 -0.05255,-0.080656 -0.12135,-0.1406074 -0.202633,-0.1921161 -0.07918,-0.048976 -0.160705,-0.08422 -0.255492,-0.086597 -0.158261,-0.018277 -0.316509,-0.029413 -0.475441,-0.00816 -0.213319,0.022606 -0.424538,0.060197 -0.627267,0.1326403 -0.03284,0.013321 -0.06613,0.025598 -0.09853,0.039964 -0.03117,0.01382 -0.121189,0.062294 -0.09207,0.04455 0.163542,-0.099667 0.330466,-0.1936631 0.495677,-0.2905241 0.02748,-0.016113 -0.05511,0.031982 -0.08248,0.04828 -0.02427,0.014451 -0.04806,0.029704 -0.07245,0.043964 -0.216025,0.1263304 -0.432506,0.2518636 -0.648756,0.3777938 0,0 0.537598,-0.4349361 0.537598,-0.4349361 z"
         id="path5571"
         style="fill:#000000;fill-opacity:1;stroke:none" />
      <path
         inkscape:connector-curvature="0"
         d="m -47.277719,-3.4266941 c -0.126919,-0.4018616 0.0988,-0.3052009 0.590949,-0.5818951 0.06858,0.060685 0.07403,0.1497051 0.07993,0.2352888 -0.0084,0.3543935 -0.416243,0.4006722 -0.700858,0.5568075 -0.09771,-0.032704 -0.146562,-0.114372 -0.168537,-0.210137 -0.005,-0.078287 0.03165,-0.1428685 0.0999,-0.1819431 0.210724,-0.1206518 0.42327,-0.2380947 0.634906,-0.357142 0.118681,-0.016162 0.21039,0.045967 0.303256,0.1108326 0.101144,0.083505 0.160712,0.2007098 0.205205,0.3216728 0.01305,0.049416 0.03467,0.1050533 0.02331,0.1575068 -0.05786,0.2671956 -0.442442,0.4676693 -0.709198,0.3861466 -0.100364,-0.05888 -0.16447,-0.1464944 -0.134814,-0.2638637 0.145189,-0.2554166 0.611454,-0.6051173 0.749191,-0.2768904 0.01392,0.0797 -0.01955,0.1503163 -0.08962,0.1913021 -0.209781,0.12269 -0.420947,0.2429987 -0.63142,0.364498 -0.118839,0.012094 -0.20924,0.012115 -0.278423,-0.09625 -0.07909,-0.2908292 0.484107,-0.6858228 0.682228,-0.43588 0.0098,0.02383 0.03063,0.084402 -0.0023,0.104464 -0.192584,0.1171918 -0.436703,0.3898802 -0.703638,0.3589007 -0.09915,-0.028578 -0.141092,-0.1131835 -0.155522,-0.208514 0.0012,-0.055208 0.01812,-0.1259196 0.07019,-0.1574879 0.599409,-0.3634477 0.396659,-0.3046743 0.672555,-0.3789821 0.09,-0.02351 0.165609,0.015869 0.220592,0.085613 0.03141,0.013332 0.04019,0.1899177 0.02148,0.1121686 0,0 -0.590112,0.3697581 -0.590112,0.3697581 l 0,0 c -0.01034,-0.014872 -0.02445,-0.027733 -0.03102,-0.044615 -0.009,-0.023159 0.04817,-0.054175 0.0052,-0.080016 -0.04846,-0.051496 -0.109562,-0.041942 -0.170448,-0.016248 -0.229133,0.117361 -0.04317,0.02306 0.513978,-0.3053719 0.06299,-0.037131 -0.06781,0.0387 -0.08625,0.066447 -0.0059,0.00885 -0.008,0.019681 -0.01203,0.029522 -0.0014,0.065513 0.02658,0.1226308 0.09989,0.1183287 0.02265,-0.00554 0.08617,-0.034739 0.06613,-0.022809 -1.331426,0.7927292 -0.725281,0.2967886 -0.51263,0.3312853 1.89e-4,0.0072 -0.0172,0.022258 -0.01099,0.018604 0.190103,-0.1119203 0.378514,-0.2266927 0.567771,-0.3400391 -0.02519,0.00933 -0.04364,0.015997 -0.0462,0.045824 0.04396,0.070492 0.157775,0.038911 0.218924,0.012528 -0.183864,0.1076815 -0.367729,0.215363 -0.551593,0.3230445 0.03133,-0.022511 0.06965,-0.034805 0.09802,-0.060889 0.02033,-0.01869 0.02003,-0.024143 0.02969,-0.047223 -0.0025,-0.00699 -0.0075,-0.029518 -0.01797,-0.034504 -0.009,-0.00429 -0.03603,0.016947 -0.02744,0.011894 0.581543,-0.3420188 0.768841,-0.4142471 0.534683,-0.3216255 -0.07119,0.056321 -0.0029,0.1295021 0.06597,0.1479742 0.255982,-0.029955 0.0294,-0.00912 -0.512627,0.3287935 -0.01068,0.00666 0.02676,-0.00265 0.03607,-0.011114 0.03108,-0.028284 7.74e-4,-0.099449 -0.0044,-0.1286289 -0.03736,-0.1083747 -0.08911,-0.2143519 -0.183363,-0.2841532 -0.08195,-0.054355 -0.167375,-0.098107 -0.264444,-0.052775 0.184209,-0.1070169 0.369149,-0.2127877 0.552629,-0.3210506 0.01232,-0.00727 -0.02639,0.011141 -0.03896,0.017959 -0.0395,0.021424 -0.08166,0.042485 -0.09403,0.088806 0.0032,0.059627 0.03759,0.132216 0.108294,0.1142618 -0.188821,0.1103934 -0.378531,0.2192792 -0.566462,0.3311802 -0.01,0.00594 0.02237,-0.00707 0.03229,-0.013115 0.04578,-0.027867 0.06102,-0.087785 0.06858,-0.1371895 -7.84e-4,-0.015876 -0.0033,-0.1584748 -0.029,-0.1455158 0.191824,-0.1165696 0.383198,-0.233881 0.575471,-0.3497087 0.0046,-0.00275 -0.0097,0.00564 -0.01219,0.010382 -0.0048,0.0093 -0.007,0.019843 -0.0088,0.030171 -0.0086,0.050476 0.0021,0.097952 0.02135,0.1447872 0,0 -0.60329,0.3388252 -0.60329,0.3388252 z"
         id="path5573"
         style="fill:#000000;fill-opacity:1;stroke:none" />
      <path
         inkscape:connector-curvature="0"
         d="m -22.460132,-8.1025381 c -0.183072,-0.089551 -0.366451,-0.1784721 -0.549201,-0.2686712 -0.02618,-0.012905 0.05302,0.024409 0.07945,0.036793 0.02944,0.013757 0.059,0.027224 0.08807,0.041738 0.318565,0.1579879 0.597858,0.2620329 0.866052,0.4631338 0.17102,0.1352592 0.318372,0.2940939 0.455309,0.4629141 0.109456,0.1240085 0.184572,0.2696947 0.261264,0.4146519 0.0551,0.087407 0.06247,0.1904801 0.06075,0.2912349 0.0012,0.1060061 -0.01576,0.2040812 -0.05744,0.3014755 -0.0438,0.089637 -0.117733,0.1549797 -0.194653,0.2156004 -0.07698,0.05938 -0.168416,0.069583 -0.261819,0.077697 -0.121578,0.00665 -0.242723,-0.010425 -0.361698,-0.033797 -0.13729,-0.025649 -0.276908,-0.040403 -0.416591,-0.039236 -0.139744,-7.81e-5 -0.27112,0.03644 -0.398115,0.091646 -0.11972,0.053749 -0.226801,0.1226356 -0.318602,0.2159708 -0.143231,0.1633081 -0.236865,0.3635022 -0.316942,0.563467 -0.06705,0.1801426 -0.112466,0.3672832 -0.144185,0.5565819 0,0 -0.622503,-0.283038 -0.622503,-0.283038 l 0,0 c 0.03889,-0.1917642 0.08907,-0.3811336 0.158488,-0.5643446 0.08121,-0.2086492 0.172651,-0.4193735 0.317211,-0.5928215 0.01798,-0.01924 0.07949,-0.086755 0.100359,-0.1036278 0.06884,-0.055713 0.155506,-0.090218 0.230876,-0.1353942 0.131073,-0.061636 0.265881,-0.1101459 0.41241,-0.1155007 0.142947,-0.00456 0.283558,0.00568 0.425542,0.024828 0.113476,0.030274 0.230835,0.045748 0.348283,0.048643 0.08246,-0.00265 0.16603,-0.00291 0.240616,-0.042412 0.06896,-0.051707 0.138407,-0.1056295 0.178542,-0.1840447 0.03748,-0.088663 0.04871,-0.1792297 0.04596,-0.2754211 -0.0037,-0.093036 -0.02005,-0.1803269 -0.07108,-0.2602399 -0.07336,-0.1414118 -0.152603,-0.2788455 -0.259067,-0.3987423 -0.138035,-0.1642007 -0.287305,-0.318295 -0.460726,-0.4458567 -0.02939,-0.019785 -0.0582,-0.0405 -0.0882,-0.05936 -0.0289,-0.018133 -0.119414,-0.065637 -0.08843,-0.051424 0.174077,0.079844 0.345344,0.1656669 0.51803,0.2484713 0.02871,0.013831 -0.05734,-0.027779 -0.08612,-0.041456 -0.02554,-0.012044 -0.05151,-0.023212 -0.07696,-0.035461 -0.22553,-0.1084416 -0.450652,-0.2177228 -0.675977,-0.3265833 0,0 0.661195,0.2024725 0.661195,0.2024725 z"
         id="path5571-0"
         style="fill:#000000;fill-opacity:1;stroke:none;display:inline" />
      <path
         inkscape:connector-curvature="0"
         d="m -25.177262,-4.0056195 c 0.262185,-0.329941 0.308273,-0.088757 0.812868,0.1645282 -0.01195,0.090794 -0.08272,0.1450881 -0.150368,0.197837 -0.298501,0.1912109 -0.564932,-0.1210368 -0.853529,-0.2696768 -0.02753,-0.099294 0.01285,-0.1854611 0.07996,-0.2572324 0.06208,-0.047951 0.136144,-0.053651 0.206701,-0.018904 0.217862,0.1072357 0.434083,0.2177634 0.651122,0.3266454 0.07976,0.089361 0.07957,0.2001128 0.07769,0.3133877 -0.01266,0.1305441 -0.07653,0.2454713 -0.15193,0.3499993 -0.03367,0.038461 -0.06771,0.087482 -0.117544,0.1074052 -0.253865,0.101451 -0.635124,-0.1052867 -0.716707,-0.3720262 -0.0073,-0.1161385 0.02948,-0.2182699 0.143368,-0.2593159 0.292939,-0.022443 0.843584,0.1685418 0.648495,0.4662715 -0.05829,0.056108 -0.135549,0.067853 -0.20871,0.032672 -0.219025,-0.105304 -0.43685,-0.213091 -0.655269,-0.3196512 -0.07647,-0.09176 -0.127081,-0.1666707 -0.0759,-0.2846445 0.196882,-0.2281961 0.839282,0.017837 0.742857,0.3218517 -0.01424,0.021484 -0.05283,0.072582 -0.08786,0.056552 -0.204852,-0.094116 -0.567428,-0.1440174 -0.691011,-0.3826462 -0.03175,-0.098173 0.01494,-0.1802617 0.0859,-0.2455337 0.04643,-0.029913 0.11452,-0.055392 0.169812,-0.029883 0.636496,0.2936957 0.474397,0.1584699 0.690275,0.3456536 0.06979,0.061488 0.07945,0.1461714 0.05238,0.2307507 0.0065,0.033502 -0.134972,0.1395213 -0.08098,0.080526 0,0 -0.636529,-0.2824612 -0.636529,-0.2824612 l 0,0 c 0.0065,-0.016881 0.0093,-0.035765 0.01964,-0.050665 0.01415,-0.020422 0.07185,0.00966 0.06926,-0.040435 0.0156,-0.068962 -0.02649,-0.1142884 -0.08184,-0.1503957 -0.22542,-0.1243424 -0.04323,-0.022964 0.540579,0.2553476 0.066,0.03147 -0.06998,-0.034628 -0.103341,-0.034311 -0.01055,-7.09e-5 -0.02079,0.00435 -0.03119,0.00646 -0.05511,0.035461 -0.08681,0.090613 -0.04225,0.1489839 0.01722,0.015703 0.07699,0.052018 0.05588,0.042085 -1.401726,-0.6605139 -0.651625,-0.4353211 -0.561309,-0.2397365 -0.0058,0.00412 -0.0281,-0.00172 -0.02154,0.00121 0.199088,0.095025 0.399598,0.187041 0.599398,0.2805563 -0.02175,-0.015723 -0.03765,-0.027255 -0.06381,-0.012684 -0.03386,0.075883 0.05597,0.1525612 0.112031,0.1885075 -0.192086,-0.092221 -0.384175,-0.1844343 -0.576263,-0.2766486 0.03619,0.013358 0.0678,0.038291 0.105307,0.047167 0.02684,0.00647 0.03121,0.00306 0.05575,-0.00188 0.0044,-0.00606 0.02026,-0.022752 0.01856,-0.03418 -0.0014,-0.0098 -0.03418,-0.020436 -0.02522,-0.016071 0.608743,0.2908627 0.773357,0.4057534 0.565631,0.2634238 -0.08649,-0.027544 -0.108976,0.070018 -0.08579,0.1374427 0.167975,0.1954694 0.02399,0.019263 -0.559238,-0.2411333 -0.01167,-0.00508 0.01716,0.020683 0.02938,0.023701 0.04079,0.010062 0.08285,-0.054995 0.104178,-0.075572 0.06895,-0.091575 0.127886,-0.1937287 0.13304,-0.3109129 -7.55e-4,-0.098333 -0.01226,-0.1936219 -0.104083,-0.2487655 0.191699,0.092883 0.382796,0.18708 0.575155,0.2786484 0.01297,0.00614 -0.024,-0.015642 -0.03668,-0.022225 -0.03986,-0.020753 -0.08087,-0.043948 -0.126207,-0.028302 -0.04766,0.035998 -0.0886,0.1050956 -0.03417,0.1536756 -0.19711,-0.094803 -0.393462,-0.1911948 -0.591322,-0.2844266 -0.01048,-0.00498 0.01839,0.014583 0.02894,0.019434 0.04873,0.022311 0.106905,0.00148 0.152088,-0.019808 0.01273,-0.00958 0.129518,-0.091379 0.104424,-0.1054127 0.203903,0.093853 0.408177,0.1869062 0.611722,0.281529 0.0048,0.00235 -0.01012,-0.00482 -0.01539,-0.00437 -0.01039,0.00121 -0.02038,0.00529 -0.02991,0.00958 -0.04666,0.021087 -0.08001,0.056529 -0.108099,0.098659 0,0 -0.618255,-0.3106816 -0.618255,-0.3106816 z"
         id="path5573-1"
         style="fill:#000000;fill-opacity:1;stroke:none;display:inline" />
      <path
         inkscape:connector-curvature="0"
         id="path5675"
         d="m -37.82664,2.3709845 c -0.07556,0.1331387 -0.128283,0.2821392 -0.226679,0.3994147 -0.01997,0.023806 -0.06055,-0.013981 -0.09083,-0.020971 -0.01514,-0.00349 -0.03028,-0.007 -0.04542,-0.010488 -0.242224,-0.055917 -0.484444,-0.1118416 -0.726666,-0.1677649 -0.105972,-0.024463 -0.211943,-0.048932 -0.317915,-0.073396 -0.03028,-0.007 -0.05976,-0.021532 -0.09083,-0.020971 -0.03474,6.249e-4 -0.06673,0.021156 -0.101326,0.024445 -0.01547,0.00147 -0.03028,-0.007 -0.04541,-0.010487 -0.04542,-0.010488 -0.09083,-0.020971 -0.136249,-0.031458 -0.07569,-0.01748 -0.151389,-0.034949 -0.227081,-0.05243 -0.333056,-0.076892 -0.666112,-0.1537847 -0.999167,-0.2306749 -0.166525,-0.038451 -0.333054,-0.076891 -0.49958,-0.1153372 -0.03028,-0.007 -0.06055,-0.013981 -0.09083,-0.020971 -0.03028,-0.007 -0.06316,-0.00684 -0.09083,-0.020971 -0.03095,-0.015799 -0.04941,-0.050596 -0.08034,-0.066386 -0.02768,-0.014121 -0.06055,-0.013981 -0.09083,-0.020971 -0.0757,-0.01748 -0.151389,-0.034949 -0.227082,-0.05243 -0.01514,-0.00349 -0.03027,-0.00699 -0.04542,-0.010488 -0.01514,-0.00349 -0.03344,-5.864e-4 -0.04542,-0.010488 -0.09929,-0.082024 0.02616,-0.041786 -0.08035,-0.066376 -0.105973,-0.024464 -0.211944,-0.048932 -0.317916,-0.073397 -0.01514,-0.00349 -0.03224,-0.018721 -0.04542,-0.010488 -0.01318,0.00823 0.0046,0.041772 -0.01049,0.045417 -0.0302,0.00729 -0.06056,-0.013981 -0.09083,-0.020971 -0.01514,-0.00349 -0.03224,-0.018721 -0.04542,-0.010488 -0.01318,0.00823 0.0046,0.041772 -0.01049,0.045417 -0.0302,0.00729 -0.08537,0.00962 -0.09083,-0.020971 -0.02933,-0.1640931 -0.0015,-0.3333834 -0.0022,-0.5000808"
         style="fill:none;stroke:#000000;stroke-width:1px;stroke-linecap:butt;stroke-linejoin:miter;stroke-opacity:1" />
      <path
         inkscape:connector-curvature="0"
         id="path5677"
         d="m -33.813426,3.7635208 c 0.130089,0.131186 0.246985,0.276926 0.390268,0.393558 0.0241,0.01962 0.06215,0 0.09322,0 0.07769,0 0.155371,0 0.233056,0 0.233056,0 0.466112,0 0.699169,0 0.0619,0 0.284768,-0.01038 0.326278,0 0.02132,0.0053 0.02529,0.04128 0.04661,0.04661 0.04522,0.01131 0.09322,0 0.139834,0 0.07768,0 0.155371,0 0.233056,0 0.248593,0 0.497186,0 0.74578,0 0.652557,0 1.305114,0 1.957671,0 0.124296,0 0.248593,0 0.37289,0 0.01554,0 0.03562,-0.01099 0.04661,0 0.07769,0.07768 -0.170908,0.04661 0.09322,0.04661 0.04661,0 0.09322,0 0.139834,0 0.01554,0 0.04661,-0.01554 0.04661,0 0,0.01554 -0.05698,0.01158 -0.04661,0 0.152411,-0.1702 0.321671,-0.32452 0.482504,-0.48678"
         style="fill:none;stroke:#000000;stroke-width:1px;stroke-linecap:butt;stroke-linejoin:miter;stroke-opacity:1" />
      <path
         transform="translate(-29.507816,0.17042229)"
         d="m -11,5 c 0,0.5522847 -0.447715,1 -1,1 -0.552285,0 -1,-0.4477153 -1,-1 0,-0.5522847 0.447715,-1 1,-1 0.552285,0 1,0.4477153 1,1 z"
         sodipodi:ry="1"
         sodipodi:rx="1"
         sodipodi:cy="5"
         sodipodi:cx="-12"
         id="path5681"
         style="fill:#000000;fill-opacity:1;stroke:none"
         sodipodi:type="arc" />
      <a
         transform="translate(-29.880706,-5.4229241)"
         id="a5705">
        <path
           sodipodi:type="arc"
           style="fill:#87f6fb;fill-opacity:0.4070352;stroke:none"
           id="path5703"
           sodipodi:cx="-11"
           sodipodi:cy="11.5"
           sodipodi:rx="2"
           sodipodi:ry="2"
           d="m -9,11.5 c 0,1.104569 -0.8954305,2 -2,2 -1.104569,0 -2,-0.895431 -2,-2 0,-1.104569 0.895431,-2 2,-2 1.1045695,0 2,0.895431 2,2 z"
           transform="translate(-0.27966729,-0.32627859)" />
      </a>
      <path
         transform="translate(-19.232183,1.8229799)"
         d="m -11,5 c 0,0.5522847 -0.447715,1 -1,1 -0.552285,0 -1,-0.4477153 -1,-1 0,-0.5522847 0.447715,-1 1,-1 0.552285,0 1,0.4477153 1,1 z"
         sodipodi:ry="1"
         sodipodi:rx="1"
         sodipodi:cy="5"
         sodipodi:cx="-12"
         id="path5681-2"
         style="fill:#000000;fill-opacity:1;stroke:none;display:inline"
         sodipodi:type="arc" />
      <path
         style="fill:#31696c;fill-opacity:1"
         d="M 31.174211,60.555264 C 24.240813,59.989983 17.490754,56.36618 13.293043,50.955668 10.416201,47.247648 8.7847442,43.329765 8.2540557,38.854723 6.7252342,25.962904 15.966173,14.048934 29.210391,11.836566 c 1.581798,-0.26423 4.108201,-0.370449 5.921933,-0.248979 8.18206,0.547975 15.58149,4.956491 19.908875,11.861536 4.331077,6.910937 4.81394,15.578113 1.276789,22.917836 -3.908694,8.110691 -11.823448,13.468736 -20.97057,14.196431 -1.879313,0.149508 -2.248578,0.148789 -4.173207,-0.0081 l 0,6e-6 z m 11.548473,-14.72403 c 0.315347,-0.190475 0.573358,-0.382519 0.573358,-0.426762 0,-0.176129 -3.388062,-1.261463 -5.819986,-1.864375 -4.603321,-1.141237 -7.126437,-1.440084 -14.149395,-1.67591 l -4.62769,-0.155394 -0.462934,0.353096 c -0.254613,0.194203 -0.444237,0.371793 -0.421385,0.394646 0.02285,0.02285 2.029526,0.10289 4.459278,0.177865 5.949174,0.183572 8.810214,0.478006 12.435815,1.279788 2.864034,0.633366 5.245246,1.341681 6.692261,1.99068 0.726893,0.326019 0.652125,0.330188 1.320678,-0.07363 z m 1.836049,-9.78613 c 2.116788,-0.642366 3.296333,-3.018254 2.51981,-5.075508 -0.534819,-1.416905 -1.920568,-2.440554 -3.472505,-2.565128 -2.997105,-0.240579 -5.219667,2.520074 -4.20729,5.225894 0.754865,2.017556 3.002583,3.069432 5.159985,2.414742 z M 24.299107,32.546688 c 3.457706,-1.702223 2.619157,-6.708895 -1.226473,-7.322822 -2.406237,-0.384138 -4.606382,1.286724 -4.755832,3.611734 -0.198829,3.093198 3.091402,5.134274 5.982305,3.711088 l 0,0 z m 24.61308,-5.560663 c 0.285364,-0.138142 0.700594,-0.438685 0.922732,-0.667872 l 0.403885,-0.416704 -0.753691,-0.745826 -0.75369,-0.745827 -0.295149,0.277278 c -0.293201,0.275448 -0.326712,0.277278 -5.077098,0.277278 -4.749478,0 -4.783951,-0.0019 -5.076913,-0.277105 l -0.294964,-0.277105 -0.691759,0.683166 c -0.380468,0.375741 -0.691759,0.744602 -0.691759,0.819689 0,0.07509 0.214869,0.346337 0.477486,0.602776 l 0.477486,0.466252 4.226036,0.107741 c 6.856142,0.174791 6.542602,0.179355 7.127398,-0.103741 l 0,0 z M 29.661763,23.740074 c 0.206815,-0.326112 0.375547,-0.652833 0.374961,-0.726047 -0.0013,-0.15267 -1.615821,-1.035102 -1.796204,-0.981684 -0.06559,0.01942 -0.582967,-0.05685 -1.149729,-0.16949 -2.942417,-0.5848 -4.718498,-0.967249 -4.944818,-1.064784 -1.140108,-0.491339 -2.930445,-0.852795 -3.503967,-0.707424 -0.440184,0.111574 -0.473509,0.152889 -0.473509,0.587044 0,0.88873 0.136345,1.241835 0.587076,1.520402 0.236218,0.145991 0.515098,0.232586 0.619733,0.192434 0.187292,-0.07187 1.332582,0.158827 1.949918,0.392776 0.17362,0.06579 1.338452,0.331881 2.588516,0.591301 1.250064,0.25942 2.755822,0.574688 3.34613,0.700597 0.590308,0.125909 1.287618,0.235424 1.549577,0.243366 0.435752,0.01321 0.508295,-0.03602 0.852316,-0.578491 z"
         id="path3767"
         inkscape:connector-curvature="0"
         transform="matrix(0.49293241,0,0,0.51241796,-52.198713,-9.1558944)" />
      <a
         transform="translate(-19.605073,-3.7703665)"
         id="a5705-5"
         style="display:inline">
        <path
           sodipodi:type="arc"
           style="fill:#87f6fb;fill-opacity:0.4070352;stroke:none"
           id="path5703-1"
           sodipodi:cx="-11"
           sodipodi:cy="11.5"
           sodipodi:rx="2"
           sodipodi:ry="2"
           d="m -9,11.5 c 0,1.104569 -0.8954305,2 -2,2 -1.104569,0 -2,-0.895431 -2,-2 0,-1.104569 0.895431,-2 2,-2 1.1045695,0 2,0.895431 2,2 z"
           transform="translate(-0.27966729,-0.32627859)" />
      </a>
      <path
         inkscape:connector-curvature="0"
         d="m -31.43004,14.486906 c -0.428843,-0.203417 -0.869303,-0.377577 -1.315825,-0.537772 -0.907861,-0.307509 -1.844288,-0.518599 -2.776563,-0.736606 -0.167235,-0.03296 -0.334276,-0.06692 -0.501706,-0.09888 -0.414845,-0.07918 -0.657746,-0.12491 -1.079095,-0.181271 -0.614277,-0.08217 -1.23211,-0.133911 -1.849567,-0.184252 -1.342803,-0.101766 -2.689892,-0.09636 -4.035236,-0.126917 -0.155825,-0.0045 -0.311649,-0.009 -0.467474,-0.01351 0,0 0.503537,-0.362779 0.503537,-0.362779 l 0,0 c 0.150961,0.0078 0.301922,0.0155 0.452884,0.02325 1.341009,0.04908 2.684157,0.04531 4.02349,0.138961 0.622979,0.04766 1.246014,0.09646 1.865749,0.177915 0.40155,0.05278 0.691283,0.103949 1.087501,0.178756 0.16841,0.0318 0.336275,0.06642 0.504412,0.09962 0.938501,0.220109 1.879912,0.434487 2.798426,0.729627 0.460478,0.156035 0.91307,0.330593 1.363993,0.512077 0,0 -0.574526,0.381768 -0.574526,0.381768 z"
         id="path5736"
         style="fill:#000000;fill-opacity:0.4070352;stroke:none" />
    </g>
  </g>
</svg>
