<?xml version="1.0" encoding="UTF-8" standalone="no"?>
<!-- Created with Inkscape (http://www.inkscape.org/) -->

<svg
   xmlns:dc="http://purl.org/dc/elements/1.1/"
   xmlns:cc="http://creativecommons.org/ns#"
   xmlns:rdf="http://www.w3.org/1999/02/22-rdf-syntax-ns#"
   xmlns:svg="http://www.w3.org/2000/svg"
   xmlns="http://www.w3.org/2000/svg"
   xmlns:sodipodi="http://sodipodi.sourceforge.net/DTD/sodipodi-0.dtd"
   xmlns:inkscape="http://www.inkscape.org/namespaces/inkscape"
   width="65"
   height="65"
   id="svg5310"
   version="1.1"
   inkscape:version="0.48.4 r9939"
   sodipodi:docname="sadness.svg">
  <defs
     id="defs5312" />
  <sodipodi:namedview
     id="base"
     pagecolor="#ffffff"
     bordercolor="#666666"
     borderopacity="1.0"
     inkscape:pageopacity="0.0"
     inkscape:pageshadow="2"
     inkscape:zoom="8.8703125"
     inkscape:cx="0.073835838"
     inkscape:cy="29.043228"
     inkscape:document-units="px"
     inkscape:current-layer="layer1"
     showgrid="false"
     inkscape:window-width="1920"
     inkscape:window-height="978"
     inkscape:window-x="0"
     inkscape:window-y="31"
     inkscape:window-maximized="1"
     inkscape:object-paths="true" />
  <metadata
     id="metadata5315">
    <rdf:RDF>
      <cc:Work
         rdf:about="">
        <dc:format>image/svg+xml</dc:format>
        <dc:type
           rdf:resource="http://purl.org/dc/dcmitype/StillImage" />
        <dc:title />
      </cc:Work>
    </rdf:RDF>
  </metadata>
  <g
     inkscape:label="Layer 1"
     inkscape:groupmode="layer"
     id="layer1"
     transform="translate(0,-987.36218)">
    <path
       transform="matrix(2.2836966,0,0,2.2210705,-7.2858589,982.3616)"
       d="M 31,17 A 13,13 0 1 1 5,17 13,13 0 1 1 31,17 z"
       sodipodi:ry="13"
       sodipodi:rx="13"
       sodipodi:cy="17"
       sodipodi:cx="18"
       id="path5278-7"
       style="fill:#000eb4;fill-opacity:0.69158876;stroke:#e91e63;stroke-opacity:1;display:inline"
       sodipodi:type="arc" />
    <path
       style="fill:#000000;fill-opacity:1;stroke:none"
       id="path6275"
       d="m 25.412261,1030.3821 c 0.128504,-0.3245 0.255535,-0.6478 0.409638,-0.9591 0.152253,-0.3279 0.342182,-0.6286 0.568815,-0.8999 0.237744,-0.2563 0.52343,-0.448 0.821252,-0.6092 0.374824,-0.1896 0.77705,-0.2917 1.175687,-0.4008 0.792359,-0.1959 1.609158,-0.2266 2.417331,-0.2816 1.080505,-0.068 2.163004,-0.079 3.244979,-0.089 1.141602,0.01 2.284709,-0.038 3.425829,0.01 0.733193,0.094 1.4446,0.3399 2.146764,0.5807 0.561009,0.228 1.131084,0.4434 1.668051,0.7346 0,0 -0.857062,0.1044 -0.857062,0.1044 l 0,0 c -0.529713,-0.2832 -1.084441,-0.5097 -1.640154,-0.7236 -0.703468,-0.2367 -1.41654,-0.4815 -2.152598,-0.5549 -0.637898,-0.02 -0.229337,0 0.13593,-0.011 0.139293,0 -0.278636,-3e-4 -0.417954,-4e-4 -0.499406,0 -0.998814,0 -1.498213,0 -1.079616,0.01 -2.159742,0.019 -3.237959,0.085 -0.798022,0.054 -1.604268,0.084 -2.388091,0.2686 -0.392128,0.1124 -0.791047,0.203 -1.163298,0.3844 -0.296992,0.1463 -0.577482,0.3337 -0.818985,0.5738 -0.228686,0.26 -0.417528,0.5545 -0.567504,0.8759 -0.153748,0.3072 -0.287009,0.6229 -0.399433,0.9509 0,0 -0.873025,-0.038 -0.873025,-0.038 z"
       inkscape:connector-curvature="0" />
    <path
       transform="matrix(2.2841503,0,0,2.1978659,52.437107,1004.2828)"
       d="m -11,5 c 0,0.5522847 -0.447715,1 -1,1 -0.552285,0 -1,-0.4477153 -1,-1 0,-0.5522847 0.447715,-1 1,-1 0.552285,0 1,0.4477153 1,1 z"
       sodipodi:ry="1"
       sodipodi:rx="1"
       sodipodi:cy="5"
       sodipodi:cx="-12"
       id="path5681-2-1"
       style="fill:#000000;fill-opacity:1;stroke:none;display:inline"
       sodipodi:type="arc" />
    <path
       transform="matrix(2.2841503,0,0,2.1978659,68.220091,1004.1701)"
       d="m -11,5 c 0,0.5522847 -0.447715,1 -1,1 -0.552285,0 -1,-0.4477153 -1,-1 0,-0.5522847 0.447715,-1 1,-1 0.552285,0 1,0.4477153 1,1 z"
       sodipodi:ry="1"
       sodipodi:rx="1"
       sodipodi:cy="5"
       sodipodi:cx="-12"
       id="path5681-2-1-6"
       style="fill:#000000;fill-opacity:1;stroke:none;display:inline"
       sodipodi:type="arc" />
    <path
       style="fill:#000000;fill-opacity:1;stroke:none"
       id="path6316"
       d="m 41.802522,24.276812 c -0.566592,0.0017 -1.134364,0.03831 -1.695416,0.117569 -0.419515,0.07499 -0.832843,0.189251 -1.190793,0.424874 -0.02867,0.02339 -0.05734,0.04677 -0.086,0.07016 0,0 -1.110042,-0.09448 -1.110042,-0.09448 l 0,0 c 0.02987,-0.02813 0.05973,-0.05627 0.0896,-0.0844 0.05209,-0.03565 0.207808,-0.143867 0.256806,-0.169795 0.296135,-0.156706 0.637724,-0.221828 0.959269,-0.301133 0.554175,-0.08795 1.11611,-0.124332 1.676732,-0.136994 0,0 1.099845,0.174198 1.099845,0.174198 z"
       inkscape:connector-curvature="0"
       transform="translate(0,987.36218)" />
    <path
       style="fill:#000000;fill-opacity:1;stroke:none"
       id="path6318"
       d="m 26.149247,24.417911 c -0.36864,0.163704 -0.721496,0.359583 -1.081627,0.540777 -0.329203,0.177602 -0.673817,0.321863 -0.997705,0.509241 -0.04429,0.02735 -0.08857,0.0547 -0.132856,0.08205 0,0 -1.103781,-0.111721 -1.103781,-0.111721 l 0,0 c 0.04468,-0.02868 0.08937,-0.05737 0.134047,-0.08605 0.326468,-0.189359 0.668026,-0.342238 1.003393,-0.515199 0.357806,-0.179863 0.708869,-0.37282 1.071707,-0.542137 0,0 1.106822,0.123044 1.106822,0.123044 z"
       inkscape:connector-curvature="0"
       transform="translate(0,987.36218)" />
    <path
       style="fill:#000000;fill-opacity:1;stroke:none"
       id="path6320"
       d="m 23.825188,25.211222 c -0.152487,0.219925 -0.318138,0.429129 -0.494695,0.629997 0,0 -1.100795,-0.08095 -1.100795,-0.08095 l 0,0 c 0.179427,-0.193644 0.350538,-0.396758 0.482801,-0.626477 0,0 1.112689,0.07743 1.112689,0.07743 z"
       inkscape:connector-curvature="0"
       transform="translate(0,987.36218)" />
    <path
       style="fill:#000000;fill-opacity:1;stroke:none"
       id="path6322"
       d="m 21.748893,25.881021 c 0.336855,-0.173528 0.705208,-0.268612 1.055204,-0.409408 0.19462,-0.07829 0.396158,-0.178439 0.585538,-0.269258 0.224317,-0.115186 0.451498,-0.224012 0.681353,-0.327572 0,0 1.095049,0.127593 1.095049,0.127593 l 0,0 c -0.234457,0.09871 -0.465931,0.203575 -0.691076,0.32242 -0.110309,0.05296 -0.4867,0.235158 -0.590874,0.278831 -0.338308,0.14183 -0.696233,0.231876 -1.026362,0.394436 0,0 -1.108832,-0.117042 -1.108832,-0.117042 z"
       inkscape:connector-curvature="0"
       transform="translate(0,987.36218)" />
    <path
       style="fill:#000000;fill-opacity:1;stroke:none"
       id="path6324"
       d="m 21.156317,26.099329 c 0.28276,-0.365575 0.657635,-0.618526 1.046293,-0.856563 0.392295,-0.217412 0.809546,-0.395013 1.234295,-0.539204 0.155453,-0.04046 0.308941,-0.08774 0.462198,-0.135672 0,0 1.102421,0.140781 1.102421,0.140781 l 0,0 c -0.15532,0.04775 -0.308508,0.103433 -0.468634,0.133756 -0.426971,0.129043 -0.839998,0.312231 -1.237704,0.512226 -0.391088,0.240334 -0.746081,0.442686 -1.026181,0.822104 0,0 -1.112688,-0.07743 -1.112688,-0.07743 z"
       inkscape:connector-curvature="0"
       transform="translate(0,987.36218)" />
    <path
       style="fill:#000000;fill-opacity:1;stroke:none"
       id="path6326"
       d="m 37.164581,25.093107 c 0.313543,-0.272902 0.645014,-0.527007 1.007699,-0.730814 0.426331,-0.21185 0.902401,-0.234015 1.368887,-0.254528 0.680566,0.0357 1.551179,-0.125391 2.207746,0.221714 0.147461,0.0817 0.07934,0.03579 0.205383,0.136198 0,0 -1.109655,0.10479 -1.109655,0.10479 l 0,0 c -0.123911,-0.08139 -0.05757,-0.0422 -0.199972,-0.11594 -0.148145,-0.06204 -0.292081,-0.101942 -0.451033,-0.128573 -0.366896,-0.06147 -1.209373,-0.05837 0.43285,-0.05053 -0.458636,0.01483 -0.928695,0.02382 -1.35791,0.205725 -0.363032,0.184083 -0.684008,0.433339 -0.990925,0.699562 0,0 -1.11307,-0.0876 -1.11307,-0.0876 z"
       inkscape:connector-curvature="0"
       transform="translate(0,987.36218)" />
    <path
       style="fill:#000000;fill-opacity:1;stroke:none"
       id="path6332"
       d="m 37.164581,24.980372 c 0.309265,-0.340631 0.723677,-0.469534 1.160163,-0.55716 0.656338,-0.09466 1.325855,-0.05516 1.985473,-0.04954 0.26845,0.0023 0.521219,0.03398 0.783101,0.08875 0.182132,0.02654 0.337932,0.09536 0.49172,0.190858 0,0 -1.105117,0.117565 -1.105117,0.117565 l 0,0 c -0.151977,-0.0756 -0.30742,-0.1315 -0.476872,-0.156752 -0.237023,-0.0408 -0.235982,-0.04714 -0.486181,-0.06166 -0.09546,-0.0055 -0.38231,-0.0064 -0.286726,-0.0091 1.64448,-0.04698 0.528262,-0.0062 0.180674,0.03156 -0.416028,0.07085 -0.841134,0.161233 -1.133165,0.493119 0,0 -1.11307,-0.0876 -1.11307,-0.0876 z"
       inkscape:connector-curvature="0"
       transform="translate(0,987.36218)" />
    <path
       style="fill:#000000;fill-opacity:1;stroke:none"
       id="path6334"
       d="m 37.404521,25.088113 c 0.33883,-0.288334 0.719777,-0.504841 1.123843,-0.686063 0.450268,-0.198955 0.938199,-0.249873 1.4236,-0.282679 0.742201,-0.01192 1.499721,-0.08617 2.235906,0.01908 0.447051,0.1058 0.879333,0.270248 1.310297,0.428026 0.286336,0.126083 0.583424,0.224913 0.86826,0.353901 0,0 -1.099131,0.127352 -1.099131,0.127352 l 0,0 c -0.282441,-0.122437 -0.570614,-0.231142 -0.855557,-0.347644 -0.433134,-0.154845 -0.868195,-0.322027 -1.322556,-0.401972 -0.459194,-0.05214 -0.179967,-0.01428 0.781952,-0.0263 0.06113,-7.64e-4 -0.122264,-1.23e-4 -0.183396,1.41e-4 -0.216278,9.34e-4 -0.432591,0.0037 -0.648698,0.01289 -0.480639,0.02542 -0.966496,0.06141 -1.417666,0.244168 -0.397583,0.171396 -0.78026,0.365196 -1.105752,0.656685 0,0 -1.111102,-0.09759 -1.111102,-0.09759 z"
       inkscape:connector-curvature="0"
       transform="translate(0,987.36218)" />
    <path
       style="fill:#000000;fill-opacity:1;stroke:none"
       id="path6336"
       d="m 21.650648,25.427077 c 0.432833,-0.214329 0.884855,-0.380645 1.337617,-0.546569 0.549753,-0.234763 1.137757,-0.321086 1.724292,-0.404806 0.849298,-0.14393 1.69882,-0.125756 2.558052,-0.12336 0,0 -1.092482,0.169867 -1.092482,0.169867 l 0,0 c 2.061125,-0.01655 0.05109,0.0011 -0.382828,0.109177 -0.582196,0.08421 -1.172339,0.146589 -1.718695,0.382391 -0.445977,0.164517 -0.894823,0.319399 -1.319135,0.536345 0,0 -1.106821,-0.123045 -1.106821,-0.123045 z"
       inkscape:connector-curvature="0"
       transform="translate(0,987.36218)" />
  </g>
</svg>
