<?xml version="1.0" encoding="UTF-8" standalone="no"?>
<!-- Created with Inkscape (http://www.inkscape.org/) -->

<svg
   xmlns:dc="http://purl.org/dc/elements/1.1/"
   xmlns:cc="http://creativecommons.org/ns#"
   xmlns:rdf="http://www.w3.org/1999/02/22-rdf-syntax-ns#"
   xmlns:svg="http://www.w3.org/2000/svg"
   xmlns="http://www.w3.org/2000/svg"
   xmlns:sodipodi="http://sodipodi.sourceforge.net/DTD/sodipodi-0.dtd"
   xmlns:inkscape="http://www.inkscape.org/namespaces/inkscape"
   width="65"
   height="65"
   id="svg5310"
   version="1.1"
   inkscape:version="0.48.4 r9939"
   sodipodi:docname="surpise.svg">
  <defs
     id="defs5312" />
  <sodipodi:namedview
     id="base"
     pagecolor="#ffffff"
     bordercolor="#666666"
     borderopacity="1.0"
     inkscape:pageopacity="0.0"
     inkscape:pageshadow="2"
     inkscape:zoom="8.8703125"
     inkscape:cx="25.924437"
     inkscape:cy="29.043228"
     inkscape:document-units="px"
     inkscape:current-layer="layer1"
     showgrid="false"
     inkscape:window-width="1920"
     inkscape:window-height="968"
     inkscape:window-x="0"
     inkscape:window-y="49"
     inkscape:window-maximized="1"
     inkscape:object-paths="true" />
  <metadata
     id="metadata5315">
    <rdf:RDF>
      <cc:Work
         rdf:about="">
        <dc:format>image/svg+xml</dc:format>
        <dc:type
           rdf:resource="http://purl.org/dc/dcmitype/StillImage" />
        <dc:title></dc:title>
      </cc:Work>
    </rdf:RDF>
  </metadata>
  <g
     inkscape:label="Layer 1"
     inkscape:groupmode="layer"
     id="layer1"
     transform="translate(0,-987.36218)">
    <path
       transform="matrix(2.2836966,0,0,2.2210705,-7.8495372,984.50353)"
       d="M 31,17 A 13,13 0 1 1 5,17 13,13 0 1 1 31,17 z"
       sodipodi:ry="13"
       sodipodi:rx="13"
       sodipodi:cy="17"
       sodipodi:cx="18"
       id="path5278-7"
       style="fill:#c8b7b7;fill-opacity:1;stroke:#e91e63;stroke-opacity:1;display:inline"
       sodipodi:type="arc" />
    <path
       transform="matrix(0.9313231,0,0,1.0705099,35.414031,1007.214)"
       d="m -11,5 a 1,1 0 1 1 -2,0 1,1 0 1 1 2,0 z"
       sodipodi:ry="1"
       sodipodi:rx="1"
       sodipodi:cy="5"
       sodipodi:cx="-12"
       id="path5681-2-1"
       style="fill:#000000;fill-opacity:1;stroke:none;display:inline"
       sodipodi:type="arc" />
    <path
       transform="matrix(0.9313231,0,0,1.0705099,50.971545,1006.4248)"
       d="m -11,5 a 1,1 0 1 1 -2,0 1,1 0 1 1 2,0 z"
       sodipodi:ry="1"
       sodipodi:rx="1"
       sodipodi:cy="5"
       sodipodi:cx="-12"
       id="path5681-2-1-1"
       style="fill:#000000;fill-opacity:1;stroke:none;display:inline"
       sodipodi:type="arc" />
    <path
       style="fill:#000000;fill-opacity:1;stroke:none"
       id="path6429"
       d="m 28.971175,1027.2295 c 2.01136,-0.1414 4.450101,-0.7045 6.981534,-1.3594 0.492605,-0.1288 0.987769,-0.2603 1.481802,-0.3906 0,0 0.343325,1.3872 0.343325,1.3872 l 0,0 c -0.493792,0.1257 -0.989803,0.2534 -1.484714,0.3801 -2.487142,0.647 -4.970089,1.2893 -6.969287,1.4544 0,0 -0.35266,-1.4717 -0.35266,-1.4717 z"
       inkscape:connector-curvature="0" />
    <path
       style="fill:#000000;fill-opacity:1;stroke:none"
       id="path6443"
       d="m 20.268806,1011.0819 c 0.712828,-0.6048 1.513069,-0.971 2.297028,-1.35 0.812124,-0.3373 0.400447,-0.1838 1.235264,-0.4592 0,0 0.896445,0.1689 0.896445,0.1689 l 0,0 c -0.831311,0.2662 -0.421502,0.1163 -1.229669,0.4467 -0.763167,0.3707 -1.546017,0.7248 -2.235349,1.3262 0,0 -0.963719,-0.1326 -0.963719,-0.1326 z"
       inkscape:connector-curvature="0" />
    <path
       style="fill:#000000;fill-opacity:1;stroke:none"
       id="path6447"
       d="m 38.96962,1008.6612 c 0.94986,0.1926 1.858022,0.6984 2.761307,1.1537 0.546375,0.2788 1.09003,0.5689 1.633675,0.8591 0,0 0.835121,0.7005 0.835121,0.7005 l 0,0 c -0.549643,-0.292 -1.097067,-0.5928 -1.649109,-0.8748 -0.882292,-0.4461 -1.768178,-0.9312 -2.692809,-1.146 0,0 -0.888249,-0.6922 -0.888249,-0.6922 z"
       inkscape:connector-curvature="0" />
  </g>
</svg>
