<?xml version="1.0" encoding="UTF-8" standalone="no"?>
<!-- Created with Inkscape (http://www.inkscape.org/) -->

<svg
   xmlns:dc="http://purl.org/dc/elements/1.1/"
   xmlns:cc="http://creativecommons.org/ns#"
   xmlns:rdf="http://www.w3.org/1999/02/22-rdf-syntax-ns#"
   xmlns:svg="http://www.w3.org/2000/svg"
   xmlns="http://www.w3.org/2000/svg"
   xmlns:sodipodi="http://sodipodi.sourceforge.net/DTD/sodipodi-0.dtd"
   xmlns:inkscape="http://www.inkscape.org/namespaces/inkscape"
   width="65"
   height="65"
   id="svg5310"
   version="1.1"
   inkscape:version="0.48.4 r9939"
   sodipodi:docname="shame.svg">
  <defs
     id="defs5312" />
  <sodipodi:namedview
     id="base"
     pagecolor="#ffffff"
     bordercolor="#666666"
     borderopacity="1.0"
     inkscape:pageopacity="0.0"
     inkscape:pageshadow="2"
     inkscape:zoom="8.8703125"
     inkscape:cx="25.924437"
     inkscape:cy="29.043228"
     inkscape:document-units="px"
     inkscape:current-layer="layer1"
     showgrid="false"
     inkscape:window-width="1920"
     inkscape:window-height="968"
     inkscape:window-x="0"
     inkscape:window-y="49"
     inkscape:window-maximized="1"
     inkscape:object-paths="true" />
  <metadata
     id="metadata5315">
    <rdf:RDF>
      <cc:Work
         rdf:about="">
        <dc:format>image/svg+xml</dc:format>
        <dc:type
           rdf:resource="http://purl.org/dc/dcmitype/StillImage" />
        <dc:title></dc:title>
      </cc:Work>
    </rdf:RDF>
  </metadata>
  <g
     inkscape:label="Layer 1"
     inkscape:groupmode="layer"
     id="layer1"
     transform="translate(0,-987.36218)">
    <path
       transform="matrix(2.2836966,0,0,2.2210705,-7.8495372,984.50353)"
       d="M 31,17 A 13,13 0 1 1 5,17 13,13 0 1 1 31,17 z"
       sodipodi:ry="13"
       sodipodi:rx="13"
       sodipodi:cy="17"
       sodipodi:cx="18"
       id="path5278-7"
       style="fill:#53e4e6;fill-opacity:1;stroke:#e91e63;stroke-opacity:1;display:inline"
       sodipodi:type="arc" />
    <path
       sodipodi:type="spiral"
       style="fill:none;stroke:#000000;stroke-width:1px;stroke-linecap:butt;stroke-linejoin:miter;stroke-opacity:1"
       id="path6455"
       sodipodi:cx="-33.482471"
       sodipodi:cy="14.494452"
       sodipodi:expansion="1"
       sodipodi:revolution="4.8000002"
       sodipodi:radius="12.143043"
       sodipodi:argument="-17.998463"
       sodipodi:t0="0"
       d="m -33.482471,14.494452 c 0.250824,0.286152 -0.26198,0.479284 -0.475604,0.416887 -0.578908,-0.169092 -0.623844,-0.927806 -0.35817,-1.368093 0.475229,-0.78757 1.576291,-0.811058 2.260584,-0.299454 1.004227,0.750801 1.00449,2.233814 0.240736,3.153074 -1.017963,1.225229 -2.894577,1.200612 -4.045564,0.18202 -1.448399,-1.281794 -1.398133,-3.556893 -0.123303,-4.938054 1.543991,-1.6727707 4.220085,-1.596467 5.830544,-0.06459 1.897871,1.805268 1.795311,4.883823 0.0059,6.723034 -2.06598,2.123442 -5.547925,1.994494 -7.615524,-0.05285 -2.349337,-2.32632 -2.193916,-6.212284 0.111563,-8.5080147 2.5864,-2.5754624 6.87683,-2.3935105 9.400505,0.1702804 2.801758,2.8462933 2.593234,7.5415153 -0.228997,10.2929943 -3.106048,3.028182 -8.206309,2.793057 -11.185485,-0.287713 -3.254706,-3.365697 -2.992957,-8.871189 0.346431,-12.0779754 3.625262,-3.4813092 9.536137,-3.1929192 12.970465,0.4051472 3.707976,3.8847612 3.392932,10.2011402 -0.463864,13.8629552 -4.144207,3.934695 -10.86619,3.592986 -14.755446,-0.52258 -4.161457,-4.403608 -3.793074,-11.531279 0.581298,-15.647936 4.662972,-4.3882554 12.196399,-3.9931916 16.540425,0.640014 0.865957,0.9236025 1.583903,1.9840878 2.121637,3.1302056"
       transform="matrix(0.37679481,0,0,0.38783913,34.308828,1005.9395)" />
    <path
       sodipodi:type="spiral"
       style="fill:none;stroke:#000000;stroke-width:1px;stroke-linecap:butt;stroke-linejoin:miter;stroke-opacity:1"
       id="path6455-9"
       sodipodi:cx="-33.482471"
       sodipodi:cy="14.494452"
       sodipodi:expansion="1"
       sodipodi:revolution="4.8000002"
       sodipodi:radius="12.143043"
       sodipodi:argument="-17.998463"
       sodipodi:t0="0"
       d="m -33.482471,14.494452 c 0.250824,0.286152 -0.26198,0.479284 -0.475604,0.416887 -0.578908,-0.169092 -0.623844,-0.927806 -0.35817,-1.368093 0.475229,-0.78757 1.576291,-0.811058 2.260584,-0.299454 1.004227,0.750801 1.00449,2.233814 0.240736,3.153074 -1.017963,1.225229 -2.894577,1.200612 -4.045564,0.18202 -1.448399,-1.281794 -1.398133,-3.556893 -0.123303,-4.938054 1.543991,-1.6727707 4.220085,-1.596467 5.830544,-0.06459 1.897871,1.805268 1.795311,4.883823 0.0059,6.723034 -2.06598,2.123442 -5.547925,1.994494 -7.615524,-0.05285 -2.349337,-2.32632 -2.193916,-6.212284 0.111563,-8.5080147 2.5864,-2.5754624 6.87683,-2.3935105 9.400505,0.1702804 2.801758,2.8462933 2.593234,7.5415153 -0.228997,10.2929943 -3.106048,3.028182 -8.206309,2.793057 -11.185485,-0.287713 -3.254706,-3.365697 -2.992957,-8.871189 0.346431,-12.0779754 3.625262,-3.4813092 9.536137,-3.1929192 12.970465,0.4051472 3.707976,3.8847612 3.392932,10.2011402 -0.463864,13.8629552 -4.144207,3.934695 -10.86619,3.592986 -14.755446,-0.52258 -4.161457,-4.403608 -3.793074,-11.531279 0.581298,-15.647936 4.662972,-4.3882554 12.196399,-3.9931916 16.540425,0.640014 0.865957,0.9236025 1.583903,1.9840878 2.121637,3.1302056"
       transform="matrix(0.37679481,0,0,0.38783913,54.299433,1006.1746)" />
    <path
       style="fill:#000000;fill-opacity:1;stroke:none"
       id="path6485"
       d="m 21.214061,37.601709 c 0.189578,0.603774 0.479109,1.172677 0.763605,1.736261 0.310831,0.634719 0.690925,1.233784 1.166713,1.758013 0.347115,0.382455 0.450433,0.455596 0.835029,0.796707 1.046406,0.814103 2.299096,1.256405 3.545538,1.659096 1.215107,0.341563 2.477485,0.519892 3.738682,0.564656 0.260372,0.0092 0.521064,0.0027 0.781597,0.004 -0.07989,-0.01799 -0.318583,-0.03209 -0.239671,-0.05398 0.264636,-0.0734 0.545792,-0.06304 0.817013,-0.106157 0.286733,-0.04558 0.572277,-0.09922 0.856208,-0.159851 0.509283,-0.108762 1.233049,-0.29625 1.728474,-0.455585 0.286918,-0.09228 0.567783,-0.202409 0.851675,-0.303613 1.133967,-0.449689 2.228179,-1.034426 3.176183,-1.809364 0.580624,-0.474627 0.724197,-0.674085 1.218665,-1.221762 0.598783,-0.680637 0.994932,-1.481925 1.326745,-2.31576 0,0 1.065707,0.04128 1.065707,0.04128 l 0,0 c -0.351365,0.841577 -0.757549,1.657337 -1.364069,2.350024 -0.493558,0.548999 -0.651041,0.763527 -1.228157,1.241741 -0.946998,0.784707 -2.043118,1.378249 -3.178338,1.839003 -0.283874,0.103405 -0.564561,0.216019 -0.851623,0.310213 -0.838229,0.275049 -1.708451,0.485951 -2.578346,0.631739 -0.270182,0.04528 -0.540697,0.09489 -0.81405,0.112959 -0.603077,0.03986 -1.208111,0.04042 -1.812166,0.06063 -1.528064,-0.01947 -3.061761,-0.156833 -4.531861,-0.599101 -1.257265,-0.410493 -2.519726,-0.865395 -3.56623,-1.701047 -0.37876,-0.342771 -0.494113,-0.429025 -0.836231,-0.811919 -0.477483,-0.534392 -0.863611,-1.141292 -1.183621,-1.781135 -0.295106,-0.573268 -0.595595,-1.149698 -0.800423,-1.762693 0,0 1.112952,-0.02434 1.112952,-0.02434 z"
       inkscape:connector-curvature="0"
       transform="translate(0,987.36218)" />
    <path
       style="fill:#000000;fill-opacity:1;stroke:none"
       id="path6491"
       d="m 20.057902,16.949344 c 0.823204,-0.846182 1.798622,-1.520887 2.789579,-2.152978 0.95801,-0.538864 0.483117,-0.285808 1.423276,-0.761791 0,0 1.032857,0.114839 1.032857,0.114839 l 0,0 c -0.946452,0.466958 -0.470431,0.217632 -1.426686,0.750599 -0.969712,0.61735 -1.937233,1.275896 -2.71028,2.136591 0,0 -1.108746,-0.08726 -1.108746,-0.08726 z"
       inkscape:connector-curvature="0"
       transform="translate(0,987.36218)" />
    <path
       style="fill:#000000;fill-opacity:1;stroke:none"
       id="path6493"
       d="m 39.154547,15.060588 c 1.790626,0.872323 3.513345,1.86925 5.212724,2.905804 1.572324,0.916449 3.154693,1.815529 4.734336,2.71928 0,0 -0.997162,0.104555 -0.997162,0.104555 l 0,0 c -1.55735,-0.917975 -3.12187,-1.823347 -4.688241,-2.725836 -1.739643,-1.043557 -3.503504,-2.052627 -5.361429,-2.87387 0,0 1.099772,-0.129933 1.099772,-0.129933 z"
       inkscape:connector-curvature="0"
       transform="translate(0,987.36218)" />
  </g>
</svg>
